<svg width="70" height="70" viewBox="0 0 70 70" fill="none" xmlns="http://www.w3.org/2000/svg">
<mask id="path-1-inside-1_617_236" fill="white">
<path d="M60 35C60 39.9445 58.5338 44.778 55.7867 48.8893C53.0397 53.0005 49.1352 56.2048 44.5671 58.097C39.9989 59.9892 34.9723 60.4843 30.1227 59.5196C25.2732 58.555 20.8186 56.174 17.3223 52.6777C13.826 49.1814 11.445 44.7268 10.4804 39.8773C9.51574 35.0277 10.0108 30.0011 11.903 25.4329C13.7952 20.8648 16.9995 16.9603 21.1107 14.2133C25.222 11.4662 30.0555 10 35 10L35 14.9517C31.0348 14.9517 27.1587 16.1275 23.8617 18.3304C20.5648 20.5334 17.9952 23.6645 16.4778 27.3278C14.9603 30.9912 14.5633 35.0222 15.3369 38.9112C16.1105 42.8002 18.0199 46.3725 20.8237 49.1763C23.6275 51.9801 27.1998 53.8895 31.0888 54.6631C34.9778 55.4367 39.0088 55.0397 42.6722 53.5222C46.3355 52.0048 49.4666 49.4352 51.6696 46.1383C53.8725 42.8413 55.0483 38.9652 55.0483 35H60Z"/>
</mask>
<path d="M60 35C60 39.9445 58.5338 44.778 55.7867 48.8893C53.0397 53.0005 49.1352 56.2048 44.5671 58.097C39.9989 59.9892 34.9723 60.4843 30.1227 59.5196C25.2732 58.555 20.8186 56.174 17.3223 52.6777C13.826 49.1814 11.445 44.7268 10.4804 39.8773C9.51574 35.0277 10.0108 30.0011 11.903 25.4329C13.7952 20.8648 16.9995 16.9603 21.1107 14.2133C25.222 11.4662 30.0555 10 35 10L35 14.9517C31.0348 14.9517 27.1587 16.1275 23.8617 18.3304C20.5648 20.5334 17.9952 23.6645 16.4778 27.3278C14.9603 30.9912 14.5633 35.0222 15.3369 38.9112C16.1105 42.8002 18.0199 46.3725 20.8237 49.1763C23.6275 51.9801 27.1998 53.8895 31.0888 54.6631C34.9778 55.4367 39.0088 55.0397 42.6722 53.5222C46.3355 52.0048 49.4666 49.4352 51.6696 46.1383C53.8725 42.8413 55.0483 38.9652 55.0483 35H60Z" fill="#D9D9D9" stroke="#18A7DF" stroke-width="10" mask="url(#path-1-inside-1_617_236)"/>
<path d="M35 3C28.671 3 22.4841 4.87677 17.2218 8.39297C11.9594 11.9092 7.85786 16.9069 5.43586 22.7541C3.01385 28.6014 2.38014 35.0355 3.61487 41.2429C4.8496 47.4503 7.8973 53.1521 12.3726 57.6274C16.8479 62.1027 22.5497 65.1504 28.7571 66.3851C34.9645 67.6199 41.3986 66.9861 47.2459 64.5641C53.0931 62.1421 58.0908 58.0406 61.607 52.7782C65.1232 47.5159 67 41.329 67 35H34" stroke="#18DF68" stroke-width="5"/>
<mask id="path-3-inside-2_617_236" fill="white">
<path d="M48 35C48 37.5712 47.2376 40.0846 45.8091 42.2224C44.3806 44.3603 42.3503 46.0265 39.9749 47.0104C37.5994 47.9944 34.9856 48.2518 32.4638 47.7502C29.9421 47.2486 27.6257 46.0105 25.8076 44.1924C23.9895 42.3743 22.7514 40.0579 22.2498 37.5362C21.7482 35.0144 22.0056 32.4006 22.9896 30.0251C23.9735 27.6497 25.6397 25.6194 27.7776 24.1909C29.9154 22.7624 32.4288 22 35 22L35 26.2616C33.2717 26.2616 31.5822 26.7741 30.1452 27.7343C28.7082 28.6945 27.5882 30.0592 26.9268 31.656C26.2654 33.2527 26.0924 35.0097 26.4295 36.7048C26.7667 38.3999 27.5989 39.9569 28.821 41.179C30.0431 42.4011 31.6001 43.2333 33.2952 43.5705C34.9903 43.9076 36.7473 43.7346 38.344 43.0732C39.9408 42.4118 41.3055 41.2918 42.2657 39.8548C43.2259 38.4178 43.7384 36.7283 43.7384 35H48Z"/>
</mask>
<path d="M48 35C48 37.5712 47.2376 40.0846 45.8091 42.2224C44.3806 44.3603 42.3503 46.0265 39.9749 47.0104C37.5994 47.9944 34.9856 48.2518 32.4638 47.7502C29.9421 47.2486 27.6257 46.0105 25.8076 44.1924C23.9895 42.3743 22.7514 40.0579 22.2498 37.5362C21.7482 35.0144 22.0056 32.4006 22.9896 30.0251C23.9735 27.6497 25.6397 25.6194 27.7776 24.1909C29.9154 22.7624 32.4288 22 35 22L35 26.2616C33.2717 26.2616 31.5822 26.7741 30.1452 27.7343C28.7082 28.6945 27.5882 30.0592 26.9268 31.656C26.2654 33.2527 26.0924 35.0097 26.4295 36.7048C26.7667 38.3999 27.5989 39.9569 28.821 41.179C30.0431 42.4011 31.6001 43.2333 33.2952 43.5705C34.9903 43.9076 36.7473 43.7346 38.344 43.0732C39.9408 42.4118 41.3055 41.2918 42.2657 39.8548C43.2259 38.4178 43.7384 36.7283 43.7384 35H48Z" fill="#D9D9D9" stroke="#18DF68" stroke-width="10" mask="url(#path-3-inside-2_617_236)"/>
</svg>
